<svg width="36" height="24" viewBox="0 0 36 24" fill="none" xmlns="http://www.w3.org/2000/svg">
<g clip-path="url(#clip0_219_644)">
<path fill-rule="evenodd" clip-rule="evenodd" d="M29.4733 11.3853C29.4733 17.6732 24.3761 22.7706 18.0886 22.7706C11.8009 22.7706 6.7038 17.6732 6.7038 11.3853C6.7038 5.09737 11.8009 0 18.0886 0C24.3761 0 29.4733 5.09737 29.4733 11.3853ZM20.8237 7.15525C22.4074 7.69913 23.5658 8.51344 23.3385 10.029C23.1735 11.1388 22.556 11.6755 21.7356 11.8634C22.8611 12.4472 23.2448 13.555 22.8883 14.8945C22.2116 16.8222 20.6029 16.9844 18.4632 16.5815L17.9437 18.6537L16.6894 18.3419L17.2018 16.2976C16.8767 16.2171 16.5444 16.131 16.202 16.0391L15.6875 18.0935L14.4347 17.7817L14.9535 15.7052L12.4273 15.0703L13.0505 13.6395C13.0505 13.6395 13.9752 13.8836 13.9623 13.8659C14.3175 13.9534 14.4754 13.7228 14.5376 13.5697L15.9455 7.94541C15.9612 7.67986 15.869 7.34534 15.3609 7.21864C15.3802 7.20508 14.4497 6.99296 14.4497 6.99296L14.7835 5.65825L17.3133 6.28254L17.8279 4.22956L19.0814 4.54135L18.5775 6.55375C18.9149 6.62992 19.2536 6.70751 19.5831 6.78937L20.0833 4.78979L21.3375 5.10158L20.8237 7.15525ZM17.8227 10.5799C18.677 10.8064 20.5361 11.2993 20.8601 10.0069C21.1907 8.68468 19.3846 8.28537 18.5002 8.08984C18.4001 8.06767 18.3116 8.04812 18.2395 8.03019L17.6149 10.5259C17.6744 10.5406 17.7443 10.5592 17.8227 10.5799ZM16.8547 14.5981C17.8779 14.8677 20.1159 15.4572 20.4721 14.0332C20.8366 12.5771 18.6667 12.0921 17.6079 11.8554C17.4898 11.829 17.3852 11.8057 17.2997 11.7844L16.6108 14.535C16.6808 14.5523 16.763 14.574 16.8547 14.5981Z" fill="#F7931A"/>
</g>
<defs>
<clipPath id="clip0_219_644">
<rect width="36" height="24" fill="white"/>
</clipPath>
</defs>
</svg>
