<svg width="216" height="183" viewBox="0 0 216 183" fill="none" xmlns="http://www.w3.org/2000/svg">
<g clip-path="url(#clip0_219_393)">
<path d="M174.382 6.37033C174.382 7.22438 173.689 7.91673 172.835 7.91673C171.981 7.91673 171.289 7.22438 171.289 6.37033C171.289 5.51628 171.981 4.82394 172.835 4.82394C173.689 4.82394 174.382 5.51628 174.382 6.37033Z" fill="white"/>
<path fill-rule="evenodd" clip-rule="evenodd" d="M50.0517 1.42188C47.4896 1.42188 45.4125 3.49891 45.4125 6.06106V171.525H197.191H298.789V6.06105C298.789 3.49891 296.712 1.42188 294.15 1.42188H50.0517ZM291.289 11.9373C291.631 11.9373 291.908 12.2143 291.908 12.5559V161.55C291.908 161.892 291.63 162.169 291.288 162.168L52.6796 161.784C52.3384 161.783 52.062 161.507 52.062 161.165V12.5559C52.062 12.2143 52.339 11.9373 52.6806 11.9373H291.289ZM172.835 7.91673C173.689 7.91673 174.382 7.22438 174.382 6.37033C174.382 5.51628 173.689 4.82394 172.835 4.82394C171.981 4.82394 171.289 5.51628 171.289 6.37033C171.289 7.22438 171.981 7.91673 172.835 7.91673Z" fill="black"/>
<path d="M310.444 181.422C310.919 181.422 311.393 181.363 311.855 181.245L328.48 177.015V171.525H298.789H197.191H45.4125H15.6445V173.015C15.6445 175.71 17.5248 178.039 20.1589 178.608L32.5993 181.293C32.996 181.379 33.4007 181.422 33.8065 181.422H310.444Z" fill="white"/>
<path d="M291.288 162.168C291.63 162.169 291.908 161.892 291.908 161.55V12.5559C291.908 12.2143 291.631 11.9373 291.289 11.9373H52.6806C52.339 11.9373 52.062 12.2143 52.062 12.5559V161.165C52.062 161.507 52.3384 161.783 52.6796 161.784L291.288 162.168Z" fill="white"/>
<path d="M328.48 171.448C328.48 171.467 328.48 171.493 328.48 171.525M328.48 177.015L311.855 181.245C311.393 181.363 310.92 181.422 310.444 181.422H33.8065C33.4007 181.422 32.996 181.379 32.5993 181.293L20.1589 178.608C17.5248 178.039 15.6445 175.71 15.6445 173.015V171.525H45.4125M328.48 177.015C328.48 175.416 328.48 172.191 328.48 171.525M328.48 177.015V171.525M328.48 171.525H298.789M45.4125 171.525V6.06106C45.4125 3.49891 47.4896 1.42188 50.0517 1.42188H294.15C296.712 1.42188 298.789 3.49891 298.789 6.06105V171.525M45.4125 171.525H197.191M298.789 171.525H197.191M146.779 171.757V171.757C146.779 173.593 148.267 175.082 150.103 175.082H193.634C195.599 175.082 197.191 173.489 197.191 171.525V171.525M174.382 6.37033C174.382 7.22438 173.689 7.91673 172.835 7.91673C171.981 7.91673 171.289 7.22438 171.289 6.37033C171.289 5.51628 171.981 4.82394 172.835 4.82394C173.689 4.82394 174.382 5.51628 174.382 6.37033ZM291.908 12.5559V161.55C291.908 161.892 291.63 162.169 291.288 162.168L52.6796 161.784C52.3384 161.783 52.062 161.507 52.062 161.165V12.5559C52.062 12.2143 52.339 11.9373 52.6806 11.9373H291.289C291.631 11.9373 291.908 12.2143 291.908 12.5559Z" stroke="black"/>
<path fill-rule="evenodd" clip-rule="evenodd" d="M125.169 24.9268H19.8596C17.0413 24.9268 14.7565 27.2115 14.7565 30.0299V173.226C14.7565 176.044 17.0413 178.329 19.8596 178.329H125.169C127.987 178.329 130.272 176.044 130.272 173.226V30.0299C130.272 27.2115 127.987 24.9268 125.169 24.9268ZM19.8596 21.834C15.3332 21.834 11.6638 25.5034 11.6638 30.0299V173.226C11.6638 177.752 15.3332 181.422 19.8596 181.422H125.169C129.695 181.422 133.365 177.752 133.365 173.226V30.0299C133.365 25.5034 129.695 21.834 125.169 21.834H19.8596Z" fill="black"/>
<path d="M19.8596 24.9268H125.169C127.987 24.9268 130.272 27.2115 130.272 30.0299V173.226C130.272 176.044 127.987 178.329 125.169 178.329H19.8596C17.0413 178.329 14.7565 176.044 14.7565 173.226V30.0299C14.7565 27.2115 17.0413 24.9268 19.8596 24.9268Z" fill="white"/>
<path fill-rule="evenodd" clip-rule="evenodd" d="M125.169 24.9268H19.8596C17.0413 24.9268 14.7565 27.2115 14.7565 30.0299V173.226C14.7565 176.044 17.0413 178.329 19.8596 178.329H125.169C127.987 178.329 130.272 176.044 130.272 173.226V30.0299C130.272 27.2115 127.987 24.9268 125.169 24.9268ZM19.8596 21.834C15.3332 21.834 11.6638 25.5034 11.6638 30.0299V173.226C11.6638 177.752 15.3332 181.422 19.8596 181.422H125.169C129.695 181.422 133.365 177.752 133.365 173.226V30.0299C133.365 25.5034 129.695 21.834 125.169 21.834H19.8596Z" stroke="black"/>
<path d="M19.8596 24.9268H125.169C127.987 24.9268 130.272 27.2115 130.272 30.0299V173.226C130.272 176.044 127.987 178.329 125.169 178.329H19.8596C17.0413 178.329 14.7565 176.044 14.7565 173.226V30.0299C14.7565 27.2115 17.0413 24.9268 19.8596 24.9268Z" stroke="black"/>
<circle cx="72.5143" cy="23.4396" r="0.498169" fill="black"/>
<rect x="2.10577" y="73.4219" width="52.4227" height="107.938" rx="7.73197" fill="black" stroke="black"/>
<path d="M5 81.7217C5 78.5617 7.56167 76 10.7217 76H19.8381H36.6346H46.2783C49.4383 76 52 78.5617 52 81.7217V173.278C52 176.438 49.4383 179 46.2783 179H10.7217C7.56167 179 5 176.438 5 173.278V81.7217Z" fill="white" stroke="black"/>
<circle cx="29.5464" cy="79.5464" r="1.54639" fill="white" stroke="black"/>
</g>
<defs>
<clipPath id="clip0_219_393">
<rect width="216" height="183" fill="white"/>
</clipPath>
</defs>
</svg>
