<svg width="222" height="129" viewBox="0 0 222 129" fill="none" xmlns="http://www.w3.org/2000/svg">
<path d="M221.184 63.3099C221.184 100.174 201.149 128.49 166.957 128.49C142.915 128.49 126.086 118.606 110.325 86.5503C97.2355 113.263 79.0706 127.154 53.4261 127.421C22.1718 127.688 0 103.112 0 64.3784C0 27.5144 21.6376 0 54.4946 0C74.2623 0 94.8313 9.34956 111.393 43.008C127.421 10.6852 142.915 0.801389 167.491 0.801389C199.279 0.801389 221.184 26.1788 221.184 63.3099ZM18.1649 64.3784C18.1649 88.153 30.4529 109.523 54.2275 109.523C73.728 109.523 88.153 94.2971 101.51 65.447C88.6873 34.727 75.3308 17.6306 54.7617 17.6306C31.5214 17.6306 18.1649 39.5353 18.1649 64.3784ZM166.422 18.6991C145.319 18.6991 134.367 35.2612 120.476 64.3784C132.764 94.0299 145.586 110.592 165.888 110.592C189.395 110.592 203.553 89.2216 203.553 64.6456C203.553 39.2682 188.861 18.6991 166.422 18.6991Z" fill="black"/>
</svg>
