<svg width="167" height="30" viewBox="0 0 167 30" fill="none" xmlns="http://www.w3.org/2000/svg">
<rect x="2.00033" y="2" width="26.1956" height="26.1956" rx="5.51486" fill="white"/>
<g filter="url(#filter0_d_262_263)">
<path d="M25.352 4.64772L17.5914 14.9995L25.352 25.3514L15.0002 17.5908L4.64834 25.3514L12.4089 14.9995L4.64834 4.64772L15.0002 12.4083L25.352 4.64772Z" fill="black"/>
</g>
<path d="M41.1455 13.884H48.8494C49.8623 13.884 50.6621 13.653 51.2485 13.1909C51.8527 12.7111 52.1548 12.0536 52.1548 11.2183C52.1548 10.3831 51.8527 9.73443 51.2485 9.27238C50.6621 8.81032 49.8623 8.5793 48.8494 8.5793H40.4791L42.5317 6.26015V24.9999H38V5.00727H49.3825C50.8398 5.00727 52.1193 5.27384 53.2211 5.80698C54.3229 6.32235 55.1848 7.04208 55.8068 7.96619C56.4288 8.8903 56.7398 9.97434 56.7398 11.2183C56.7398 12.4445 56.4288 13.5197 55.8068 14.4438C55.1848 15.3679 54.3229 16.0965 53.2211 16.6297C52.1193 17.145 50.8398 17.4027 49.3825 17.4027H41.1455V13.884ZM44.6109 15.6434H49.7824L57.3263 24.9999H52.0216L44.6109 15.6434Z" fill="white"/>
<path d="M58.5279 24.9999V5.00727H63.0329V21.3213L61.7534 20.415L74.1222 5.00727H78.9471L62.6064 24.9999H58.5279ZM68.0711 15.2169L71.3232 12.3113L79.2403 24.9999H74.0689L68.0711 15.2169Z" fill="white"/>
<path d="M77.8073 18.469H82.3923C82.4989 19.1443 82.7921 19.7396 83.272 20.255C83.7696 20.7526 84.4271 21.1436 85.2446 21.4279C86.0798 21.6945 87.0395 21.8278 88.1235 21.8278C89.7052 21.8278 90.9491 21.6056 91.8555 21.1614C92.7796 20.6993 93.2416 20.0595 93.2416 19.2421C93.2416 18.6023 92.9751 18.1136 92.4419 17.7759C91.9266 17.4205 90.958 17.1628 89.5363 17.0029L85.5111 16.5497C82.9165 16.2654 81.0328 15.6611 79.8599 14.737C78.7048 13.7952 78.1272 12.489 78.1272 10.8185C78.1272 9.5034 78.5093 8.38381 79.2734 7.45971C80.0554 6.5356 81.1483 5.83364 82.5522 5.35381C83.9562 4.85622 85.6089 4.60742 87.5104 4.60742C89.3586 4.60742 91.0025 4.88288 92.4419 5.43379C93.8814 5.96692 95.0277 6.7222 95.8807 7.69962C96.7337 8.65927 97.1957 9.78774 97.2668 11.085H92.6818C92.593 10.4986 92.3264 9.99211 91.8821 9.5656C91.4556 9.12132 90.8603 8.78367 90.0961 8.55264C89.332 8.30384 88.4345 8.17944 87.4038 8.17944C85.9643 8.17944 84.8181 8.3927 83.965 8.81921C83.112 9.24572 82.6855 9.84994 82.6855 10.6319C82.6855 11.2361 82.9343 11.707 83.4319 12.0447C83.9473 12.3646 84.8447 12.6045 86.1242 12.7644L90.3094 13.2709C92.1576 13.4664 93.6237 13.7863 94.7078 14.2306C95.8096 14.6571 96.5915 15.2346 97.0536 15.9633C97.5334 16.6919 97.7733 17.616 97.7733 18.7356C97.7733 20.0684 97.3646 21.2413 96.5471 22.2543C95.7474 23.2495 94.6189 24.0225 93.1617 24.5734C91.7044 25.1243 89.9984 25.3998 88.0435 25.3998C86.0532 25.3998 84.3027 25.1155 82.7921 24.5468C81.2816 23.9603 80.0909 23.1517 79.2201 22.121C78.3493 21.0725 77.8784 19.8552 77.8073 18.469Z" fill="white"/>
<path d="M114.21 23.0002H112.211L120.368 5.00684H125.166L115.676 24.9995H110.585L101.121 5.00684H105.973L114.21 23.0002Z" fill="white"/>
<path d="M136.903 5.00684C138.484 5.00684 139.853 5.28229 141.008 5.8332C142.163 6.38411 143.043 7.15716 143.647 8.15235C144.269 9.14754 144.58 10.3027 144.58 11.6177C144.58 12.9328 144.269 14.088 143.647 15.0831C143.043 16.0606 142.163 16.8336 141.008 17.4023C139.853 17.9532 138.484 18.2287 136.903 18.2287H128.079V14.4967H136.663C137.711 14.4967 138.529 14.239 139.115 13.7236C139.719 13.2083 140.022 12.5063 140.022 11.6177C140.022 10.7114 139.719 10.0095 139.115 9.51186C138.529 8.99649 137.711 8.73881 136.663 8.73881H128.479L130.532 6.5796V24.9995H126V5.00684H136.903Z" fill="white"/>
<path d="M164.197 22.0139L162.624 22.2538V5.00684H166.992V24.9995H161.291L148.496 7.7525L150.042 7.51258V24.9995L146 24.9995V5.00684L151.535 5.00684L164.197 22.0139Z" fill="white"/>
<defs>
<filter id="filter0_d_262_263" x="0.648342" y="0.647461" width="28.7036" height="28.7041" filterUnits="userSpaceOnUse" color-interpolation-filters="sRGB">
<feFlood flood-opacity="0" result="BackgroundImageFix"/>
<feColorMatrix in="SourceAlpha" type="matrix" values="0 0 0 0 0 0 0 0 0 0 0 0 0 0 0 0 0 0 127 0" result="hardAlpha"/>
<feOffset/>
<feGaussianBlur stdDeviation="2"/>
<feComposite in2="hardAlpha" operator="out"/>
<feColorMatrix type="matrix" values="0 0 0 0 0.615686 0 0 0 0 0.937255 0 0 0 0 0.980392 0 0 0 1 0"/>
<feBlend mode="normal" in2="BackgroundImageFix" result="effect1_dropShadow_262_263"/>
<feBlend mode="normal" in="SourceGraphic" in2="effect1_dropShadow_262_263" result="shape"/>
</filter>
</defs>
</svg>
