<svg width="36" height="24" viewBox="0 0 36 24" fill="none" xmlns="http://www.w3.org/2000/svg">
<mask id="mask0_219_621" style="mask-type:luminance" maskUnits="userSpaceOnUse" x="2" y="6" width="32" height="12">
<path d="M18.5473 10.1451C18.5291 11.5776 19.8239 12.3771 20.7993 12.8523C21.8015 13.34 22.1381 13.6527 22.1343 14.0888C22.1266 14.7563 21.3348 15.0508 20.5937 15.0623C19.3008 15.0824 18.5492 14.7133 17.9515 14.434L17.4858 16.6134C18.0854 16.8898 19.1956 17.1307 20.347 17.1413C23.0495 17.1413 24.8176 15.8073 24.8272 13.7388C24.8377 11.1138 21.1962 10.9685 21.221 9.79512C21.2296 9.43939 21.5691 9.05974 22.3131 8.96316C22.6813 8.91439 23.6978 8.87709 24.8502 9.40783L25.3025 7.29922C24.6828 7.07354 23.8862 6.85742 22.8945 6.85742C20.3508 6.85742 18.5616 8.2096 18.5473 10.1451ZM29.6488 7.03911C29.1553 7.03911 28.7394 7.32695 28.5538 7.76876L24.6933 16.9863H27.3939L27.9313 15.5012H31.2314L31.5432 16.9863H33.9234L31.8463 7.03911H29.6488ZM30.0265 9.72627L30.8059 13.4615H28.6715L30.0265 9.72627ZM15.2729 7.03911L13.1442 16.9863H15.7176L17.8454 7.03911H15.2729ZM11.466 7.03911L8.78741 13.8096L7.70394 8.05277C7.57675 7.41015 7.0747 7.03911 6.51719 7.03911H2.13836L2.07715 7.32791C2.97606 7.52299 3.99737 7.83761 4.61609 8.17422C4.99478 8.37982 5.10283 8.5596 5.22715 9.04826L7.27935 16.9863H9.99902L14.1684 7.03911H11.466Z" fill="white"/>
</mask>
<g mask="url(#mask0_219_621)">
<path d="M-1.25781 8.08504L30.1202 -3.4707L37.2585 15.9128L5.88086 27.4686" fill="url(#paint0_linear_219_621)"/>
</g>
<defs>
<linearGradient id="paint0_linear_219_621" x1="4.96185" y1="16.8282" x2="31.8014" y2="6.94355" gradientUnits="userSpaceOnUse">
<stop stop-color="#222357"/>
<stop offset="1" stop-color="#254AA5"/>
</linearGradient>
</defs>
</svg>
