<svg width="36" height="24" viewBox="0 0 36 24" fill="none" xmlns="http://www.w3.org/2000/svg">
<path d="M23.9585 19.9456C28.3463 19.9456 31.9034 16.388 31.9034 12.0001C31.9034 7.61227 28.3463 4.05469 23.9585 4.05469C19.5706 4.05469 16.0137 7.61227 16.0137 12.0001C16.0137 16.388 19.5706 19.9456 23.9585 19.9456Z" fill="#F79E1B"/>
<path d="M12.0413 19.9457C16.4291 19.9457 19.9861 16.3881 19.9861 12.0002C19.9861 7.61228 16.4291 4.05469 12.0413 4.05469C7.65342 4.05469 4.09644 7.61228 4.09644 12.0002C4.09644 16.3881 7.65342 19.9457 12.0413 19.9457Z" fill="#EB001B"/>
<path fill-rule="evenodd" clip-rule="evenodd" d="M17.9999 6.74414C16.7637 8.14482 16.0137 9.98469 16.0137 11.9996C16.0137 14.0146 16.7637 15.8544 17.9999 17.2551C19.2361 15.8544 19.9862 14.0146 19.9862 11.9996C19.9862 9.98469 19.2361 8.14482 17.9999 6.74414Z" fill="#FF5A00"/>
</svg>
