<svg width="269" height="59" viewBox="0 0 269 59" fill="none" xmlns="http://www.w3.org/2000/svg">
<rect x="0.000671387" y="2.25" width="54.4062" height="54.4062" rx="11.4539" fill="black"/>
<g filter="url(#filter0_d_219_794)">
<path d="M48.5003 7.74994L32.3821 29.2499L48.5003 50.7498L27.0004 34.6317L5.50043 50.7498L21.6186 29.2499L5.50043 7.74994L27.0004 23.8681L48.5003 7.74994Z" fill="#9DEFFA"/>
</g>
<path d="M75.6449 17.827H87.2007C88.7201 17.827 89.9197 17.4805 90.7994 16.7874C91.7057 16.0676 92.1589 15.0813 92.1589 13.8285C92.1589 12.5756 91.7057 11.6026 90.7994 10.9095C89.9197 10.2165 88.7201 9.86992 87.2007 9.86992H74.6453L77.7242 6.3912V34.5009H70.9267V4.51189H88.0004C90.1863 4.51189 92.1056 4.91174 93.7583 5.71145C95.411 6.4845 96.7039 7.5641 97.6369 8.95026C98.5699 10.3364 99.0364 11.9625 99.0364 13.8285C99.0364 15.6678 98.5699 17.2805 97.6369 18.6667C96.7039 20.0529 95.411 21.1458 93.7583 21.9455C92.1056 22.7185 90.1863 23.1051 88.0004 23.1051H75.6449V17.827ZM80.843 20.466H88.6002L99.916 34.5009H91.959L80.843 20.466Z" fill="black"/>
<path d="M101.718 34.5009V4.51189H108.476V28.9829L106.557 27.6234L125.11 4.51189H132.347L107.836 34.5009H101.718ZM116.033 19.8263L120.911 15.4679L132.787 34.5009H125.03L116.033 19.8263Z" fill="black"/>
<path d="M130.638 24.7045H137.515C137.675 25.7174 138.115 26.6104 138.835 27.3835C139.581 28.1299 140.567 28.7163 141.793 29.1429C143.046 29.5427 144.486 29.7426 146.112 29.7426C148.484 29.7426 150.35 29.4094 151.71 28.743C153.096 28.0499 153.789 27.0903 153.789 25.8641C153.789 24.9044 153.389 24.1713 152.59 23.6649C151.816 23.1317 150.364 22.7452 148.231 22.5053L142.193 21.8255C138.301 21.399 135.476 20.4927 133.716 19.1065C131.984 17.6937 131.117 15.7344 131.117 13.2287C131.117 11.2561 131.691 9.5767 132.837 8.19054C134.01 6.80438 135.649 5.75143 137.755 5.0317C139.861 4.28531 142.34 3.91211 145.192 3.91211C147.965 3.91211 150.43 4.32529 152.59 5.15166C154.749 5.95136 156.468 7.08428 157.748 8.55041C159.027 9.98988 159.72 11.6826 159.827 13.6285H152.949C152.816 12.7489 152.416 11.9891 151.75 11.3494C151.11 10.683 150.217 10.1765 149.071 9.82994C147.925 9.45674 146.578 9.27014 145.032 9.27014C142.873 9.27014 141.154 9.59003 139.874 10.2298C138.595 10.8696 137.955 11.7759 137.955 12.9488C137.955 13.8551 138.328 14.5615 139.074 15.068C139.848 15.5478 141.194 15.9077 143.113 16.1476L149.391 16.9073C152.163 17.2006 154.362 17.6804 155.988 18.3468C157.641 18.9866 158.814 19.8529 159.507 20.9459C160.227 22.0388 160.587 23.425 160.587 25.1043C160.587 27.1036 159.973 28.863 158.747 30.3824C157.548 31.8752 155.855 33.0348 153.669 33.8611C151.483 34.6875 148.924 35.1007 145.992 35.1007C143.006 35.1007 140.381 34.6742 138.115 33.8211C135.849 32.9415 134.063 31.7286 132.757 30.1825C131.451 28.6097 130.744 26.7837 130.638 24.7045Z" fill="black"/>
<path d="M186.742 32.0011H183.743L195.978 5.011H203.176L188.941 35H181.304L167.109 5.011H174.386L186.742 32.0011ZM220.375 5.011C222.748 5.011 224.8 5.42418 226.533 6.25055C228.266 7.07691 229.585 8.23649 230.492 9.72927C231.425 11.2221 231.891 12.9548 231.891 14.9274C231.891 16.9 231.425 18.6327 230.492 20.1255C229.585 21.5916 228.266 22.7512 226.533 23.6042C224.8 24.4305 222.748 24.8437 220.375 24.8437H207.14V19.2458H220.016C221.588 19.2458 222.815 18.8593 223.694 18.0862C224.601 17.3132 225.054 16.2602 225.054 14.9274C225.054 13.5679 224.601 12.5149 223.694 11.7685C222.815 10.9955 221.588 10.6089 220.016 10.6089H207.74L210.819 7.37014V35H204.021V5.011H220.375ZM261.236 30.5216L258.877 30.8815V5.011H265.475V35H256.878L237.685 9.12949L240.004 8.76962V35H233.447V5.011H242.243L261.236 30.5216Z" fill="black"/>
<path d="M78.0652 41.2644C79.0443 41.2644 79.8932 41.4379 80.6121 41.7849C81.3309 42.1319 81.8886 42.6215 82.2852 43.2535C82.6818 43.8732 82.88 44.592 82.88 45.41C82.88 46.2279 82.6818 46.9529 82.2852 47.585C81.8886 48.2047 81.3309 48.6942 80.6121 49.0536C79.8932 49.4006 79.0443 49.5741 78.0652 49.5741H71.7074V48.0498H78.028C78.9699 48.0498 79.7135 47.8143 80.2589 47.3433C80.8166 46.86 81.0954 46.2155 81.0954 45.41C81.0954 44.6044 80.8166 43.9661 80.2589 43.4952C79.7135 43.0242 78.9699 42.7888 78.028 42.7888H71.8933L72.6741 41.9336V55.2069H70.9266V41.2644H78.0652Z" fill="black"/>
<path d="M91.3048 55.4486C90.0779 55.4486 88.9935 55.2193 88.0516 54.7608C87.1221 54.3022 86.3971 53.6578 85.8765 52.8274C85.356 51.997 85.0958 51.0428 85.0958 49.9645C85.0958 48.8739 85.356 47.9196 85.8765 47.1017C86.3971 46.2837 87.1221 45.6454 88.0516 45.1869C88.9935 44.7283 90.0779 44.4991 91.3048 44.4991C92.5442 44.4991 93.6286 44.7283 94.5581 45.1869C95.4876 45.6454 96.2126 46.2837 96.7331 47.1017C97.2661 47.9196 97.5325 48.8739 97.5325 49.9645C97.5325 51.0428 97.2661 51.997 96.7331 52.8274C96.2126 53.6578 95.4876 54.3022 94.5581 54.7608C93.6286 55.2193 92.5442 55.4486 91.3048 55.4486ZM91.3048 54.0172C92.2219 54.0172 93.0151 53.8561 93.6844 53.5338C94.3536 53.1992 94.8679 52.7283 95.2273 52.121C95.5991 51.5137 95.785 50.7949 95.785 49.9645C95.785 49.1466 95.5991 48.4339 95.2273 47.8267C94.8679 47.2194 94.3536 46.7484 93.6844 46.4138C93.0151 46.0792 92.2219 45.9119 91.3048 45.9119C90.4001 45.9119 89.6069 46.0792 88.9253 46.4138C88.2561 46.7484 87.7417 47.2194 87.3823 47.8267C87.0229 48.4339 86.8432 49.1466 86.8432 49.9645C86.8432 50.7949 87.0229 51.5137 87.3823 52.121C87.7417 52.7283 88.2561 53.1992 88.9253 53.5338C89.6069 53.8561 90.4001 54.0172 91.3048 54.0172Z" fill="black"/>
<path d="M113.902 54.4076H113.177L117.118 44.7407H118.865L114.497 55.2069H112.749L108.79 45.4657H109.589L105.573 55.2069H103.826L99.4573 44.7407H101.223L105.183 54.4076H104.421L108.306 44.7407H110.072L113.902 54.4076Z" fill="black"/>
<path d="M126.965 55.4486C125.763 55.4486 124.697 55.2193 123.768 54.7608C122.851 54.2898 122.126 53.6454 121.593 52.8274C121.072 51.997 120.812 51.0428 120.812 49.9645C120.812 48.8739 121.06 47.9196 121.556 47.1017C122.051 46.2837 122.739 45.6454 123.619 45.1869C124.499 44.7283 125.509 44.4991 126.649 44.4991C127.777 44.4991 128.762 44.7469 129.605 45.2427C130.448 45.7384 131.098 46.4386 131.557 47.3433C132.028 48.2357 132.263 49.2767 132.263 50.4665H122.113V49.1094H131.538L130.535 49.7229C130.497 48.9421 130.311 48.2666 129.977 47.6965C129.642 47.1264 129.19 46.6865 128.62 46.3766C128.05 46.0668 127.387 45.9119 126.631 45.9119C125.813 45.9119 125.1 46.0792 124.493 46.4138C123.885 46.7361 123.408 47.1946 123.061 47.7895C122.727 48.3844 122.559 49.0846 122.559 49.8902C122.559 50.7329 122.751 51.4641 123.136 52.0838C123.52 52.7035 124.059 53.1806 124.753 53.5152C125.447 53.8499 126.265 54.0172 127.207 54.0172C128.062 54.0172 128.899 53.8746 129.717 53.5896C130.547 53.3045 131.291 52.9142 131.947 52.4184V53.7569C131.303 54.2774 130.535 54.6926 129.642 55.0024C128.75 55.2999 127.858 55.4486 126.965 55.4486Z" fill="black"/>
<path d="M135.206 44.7407H136.916L137.511 48.31V55.2069H135.801V47.994L135.206 44.7407ZM143.07 44.7035V46.2465C142.834 46.1722 142.555 46.1164 142.233 46.0792C141.923 46.042 141.626 46.0234 141.341 46.0234C140.597 46.0234 139.934 46.1907 139.352 46.5254C138.769 46.86 138.317 47.3495 137.995 47.994C137.672 48.626 137.511 49.3758 137.511 50.2434L137.028 49.5741C137.053 48.8429 137.17 48.1675 137.381 47.5478C137.592 46.9282 137.889 46.3952 138.273 45.9491C138.67 45.4905 139.141 45.1373 139.686 44.8894C140.244 44.6292 140.87 44.4991 141.564 44.4991C141.824 44.4991 142.091 44.5176 142.363 44.5548C142.648 44.592 142.884 44.6416 143.07 44.7035Z" fill="black"/>
<path d="M150.936 55.4486C149.733 55.4486 148.668 55.2193 147.738 54.7608C146.821 54.2898 146.096 53.6454 145.563 52.8274C145.042 51.997 144.782 51.0428 144.782 49.9645C144.782 48.8739 145.03 47.9196 145.526 47.1017C146.022 46.2837 146.709 45.6454 147.589 45.1869C148.469 44.7283 149.479 44.4991 150.619 44.4991C151.747 44.4991 152.733 44.7469 153.575 45.2427C154.418 45.7384 155.069 46.4386 155.527 47.3433C155.998 48.2357 156.234 49.2767 156.234 50.4665H146.084V49.1094H155.509L154.505 49.7229C154.468 48.9421 154.282 48.2666 153.947 47.6965C153.612 47.1264 153.16 46.6865 152.59 46.3766C152.02 46.0668 151.357 45.9119 150.601 45.9119C149.783 45.9119 149.07 46.0792 148.463 46.4138C147.856 46.7361 147.379 47.1946 147.032 47.7895C146.697 48.3844 146.53 49.0846 146.53 49.8902C146.53 50.7329 146.722 51.4641 147.106 52.0838C147.49 52.7035 148.029 53.1806 148.723 53.5152C149.417 53.8499 150.235 54.0172 151.177 54.0172C152.032 54.0172 152.869 53.8746 153.687 53.5896C154.517 53.3045 155.261 52.9142 155.918 52.4184V53.7569C155.273 54.2774 154.505 54.6926 153.612 55.0024C152.72 55.2999 151.828 55.4486 150.936 55.4486Z" fill="black"/>
<path d="M169.624 55.2069L169.252 51.2101L169.754 49.9831L169.289 48.6632L170.014 40.8926H171.762L170.888 49.8902L171.371 55.2069H169.624ZM170.275 49.9645C170.002 51.0551 169.581 52.0156 169.01 52.846C168.453 53.664 167.771 54.3022 166.966 54.7608C166.172 55.2193 165.292 55.4486 164.326 55.4486C163.297 55.4486 162.386 55.2193 161.593 54.7608C160.8 54.2898 160.174 53.6454 159.715 52.8274C159.269 51.997 159.046 51.0428 159.046 49.9645C159.046 48.8739 159.269 47.9196 159.715 47.1017C160.174 46.2837 160.8 45.6454 161.593 45.1869C162.386 44.7283 163.297 44.4991 164.326 44.4991C165.292 44.4991 166.172 44.7283 166.966 45.1869C167.771 45.6454 168.459 46.2837 169.029 47.1017C169.599 47.9196 170.014 48.8739 170.275 49.9645ZM160.794 49.9645C160.794 50.7577 160.955 51.4579 161.277 52.0652C161.612 52.6725 162.064 53.1496 162.634 53.4966C163.217 53.8313 163.873 53.9986 164.605 53.9986C165.348 53.9986 166.03 53.8313 166.65 53.4966C167.282 53.1496 167.839 52.6725 168.323 52.0652C168.818 51.4579 169.221 50.7577 169.531 49.9645C169.221 49.1714 168.818 48.4711 168.323 47.8639C167.839 47.2566 167.282 46.7856 166.65 46.451C166.03 46.104 165.348 45.9305 164.605 45.9305C163.873 45.9305 163.217 46.104 162.634 46.451C162.064 46.7856 161.612 47.2566 161.277 47.8639C160.955 48.4711 160.794 49.1714 160.794 49.9645Z" fill="black"/>
<path d="M181.651 40.8926H183.361V48.626L183.045 49.1652V50.7453L183.361 51.4703V55.2069H181.651V40.8926ZM182.525 49.9645C182.797 48.8739 183.213 47.9196 183.77 47.1017C184.34 46.2837 185.022 45.6454 185.815 45.1869C186.621 44.7283 187.507 44.4991 188.474 44.4991C189.502 44.4991 190.413 44.7283 191.206 45.1869C192 45.6454 192.619 46.2837 193.065 47.1017C193.524 47.9196 193.753 48.8739 193.753 49.9645C193.753 51.0428 193.524 51.997 193.065 52.8274C192.619 53.6454 192 54.2898 191.206 54.7608C190.413 55.2193 189.502 55.4486 188.474 55.4486C187.507 55.4486 186.621 55.2193 185.815 54.7608C185.022 54.3022 184.34 53.664 183.77 52.846C183.213 52.0156 182.797 51.0551 182.525 49.9645ZM192.006 49.9645C192.006 49.1714 191.838 48.4711 191.504 47.8639C191.182 47.2566 190.729 46.7856 190.147 46.451C189.577 46.104 188.926 45.9305 188.195 45.9305C187.451 45.9305 186.763 46.104 186.131 46.451C185.512 46.7856 184.96 47.2566 184.477 47.8639C183.993 48.4711 183.591 49.1714 183.268 49.9645C183.591 50.7577 183.993 51.4579 184.477 52.0652C184.96 52.6725 185.512 53.1496 186.131 53.4966C186.763 53.8313 187.451 53.9986 188.195 53.9986C188.926 53.9986 189.577 53.8313 190.147 53.4966C190.729 53.1496 191.182 52.6725 191.504 52.0652C191.838 51.4579 192.006 50.7577 192.006 49.9645Z" fill="black"/>
<path d="M198.814 58.516C198.281 58.516 197.804 58.4478 197.382 58.3115C196.961 58.1751 196.546 57.9769 196.137 57.7166V56.3595C196.546 56.6198 196.942 56.8119 197.326 56.9358C197.711 57.0597 198.151 57.1217 198.646 57.1217C199.179 57.1217 199.638 56.9978 200.022 56.7499C200.406 56.5144 200.728 56.124 200.989 55.5787L206.213 44.7407H208.034L202.309 56.2108C202.048 56.7437 201.738 57.1775 201.379 57.5121C201.032 57.8591 200.642 58.1132 200.208 58.2743C199.787 58.4354 199.322 58.516 198.814 58.516ZM200.561 54.8723L195.598 44.7407H197.475L202.29 54.8723H200.561Z" fill="black"/>
<path d="M222.703 48.403V47.4549L229.042 55.2069H226.867L221.587 48.626H222.331L217.033 55.2069H214.895L221.234 47.4921V48.3472L215.397 41.2644H217.553L222.405 47.2318H221.606L226.439 41.2644H228.54L222.703 48.403Z" fill="black"/>
<path d="M231.087 44.7407H232.797L233.392 48.31V55.2069H231.682V47.994L231.087 44.7407ZM238.951 44.7035V46.2465C238.715 46.1722 238.436 46.1164 238.114 46.0792C237.804 46.042 237.507 46.0234 237.222 46.0234C236.478 46.0234 235.815 46.1907 235.233 46.5254C234.65 46.86 234.198 47.3495 233.876 47.994C233.553 48.626 233.392 49.3758 233.392 50.2434L232.909 49.5741C232.934 48.8429 233.052 48.1675 233.262 47.5478C233.473 46.9282 233.77 46.3952 234.155 45.9491C234.551 45.4905 235.022 45.1373 235.567 44.8894C236.125 44.6292 236.751 44.4991 237.445 44.4991C237.705 44.4991 237.972 44.5176 238.244 44.5548C238.529 44.592 238.765 44.6416 238.951 44.7035Z" fill="black"/>
<path d="M251.314 55.2069L250.942 51.2472L251.407 49.9645L250.942 48.7004L251.314 44.7407H253.061L252.578 49.9645L253.061 55.2069H251.314ZM251.983 49.9645C251.71 51.0551 251.289 52.0156 250.719 52.846C250.161 53.664 249.48 54.3022 248.674 54.7608C247.881 55.2193 247.001 55.4486 246.034 55.4486C245.006 55.4486 244.095 55.2193 243.301 54.7608C242.508 54.2898 241.882 53.6454 241.424 52.8274C240.978 51.997 240.755 51.0428 240.755 49.9645C240.755 48.8739 240.978 47.9196 241.424 47.1017C241.882 46.2837 242.508 45.6454 243.301 45.1869C244.095 44.7283 245.006 44.4991 246.034 44.4991C247.001 44.4991 247.881 44.7283 248.674 45.1869C249.48 45.6454 250.167 46.2837 250.737 47.1017C251.308 47.9196 251.723 48.8739 251.983 49.9645ZM242.502 49.9645C242.502 50.7577 242.663 51.4579 242.985 52.0652C243.32 52.6725 243.772 53.1496 244.342 53.4966C244.925 53.8313 245.582 53.9986 246.313 53.9986C247.057 53.9986 247.738 53.8313 248.358 53.4966C248.99 53.1496 249.548 52.6725 250.031 52.0652C250.527 51.4579 250.93 50.7577 251.239 49.9645C250.93 49.1714 250.527 48.4711 250.031 47.8639C249.548 47.2566 248.99 46.7856 248.358 46.451C247.738 46.104 247.057 45.9305 246.313 45.9305C245.582 45.9305 244.925 46.104 244.342 46.451C243.772 46.7856 243.32 47.2566 242.985 47.8639C242.663 48.4711 242.502 49.1714 242.502 49.9645Z" fill="black"/>
<path d="M259.003 58.516C258.47 58.516 257.993 58.4478 257.571 58.3115C257.15 58.1751 256.735 57.9769 256.326 57.7166V56.3595C256.735 56.6198 257.131 56.8119 257.515 56.9358C257.9 57.0597 258.34 57.1217 258.835 57.1217C259.368 57.1217 259.827 56.9978 260.211 56.7499C260.595 56.5144 260.917 56.124 261.178 55.5787L266.401 44.7407H268.223L262.498 56.2108C262.237 56.7437 261.927 57.1775 261.568 57.5121C261.221 57.8591 260.831 58.1132 260.397 58.2743C259.976 58.4354 259.511 58.516 259.003 58.516ZM260.75 54.8723L255.787 44.7407H257.664L262.479 54.8723H260.75Z" fill="black"/>
<defs>
<filter id="filter0_d_219_794" x="0.600429" y="2.85" width="52.7999" height="52.8" filterUnits="userSpaceOnUse" color-interpolation-filters="sRGB">
<feFlood flood-opacity="0" result="BackgroundImageFix"/>
<feColorMatrix in="SourceAlpha" type="matrix" values="0 0 0 0 0 0 0 0 0 0 0 0 0 0 0 0 0 0 127 0" result="hardAlpha"/>
<feOffset/>
<feGaussianBlur stdDeviation="2.45"/>
<feComposite in2="hardAlpha" operator="out"/>
<feColorMatrix type="matrix" values="0 0 0 0 0.615686 0 0 0 0 0.937255 0 0 0 0 0.980392 0 0 0 1 0"/>
<feBlend mode="normal" in2="BackgroundImageFix" result="effect1_dropShadow_219_794"/>
<feBlend mode="normal" in="SourceGraphic" in2="effect1_dropShadow_219_794" result="shape"/>
</filter>
</defs>
</svg>
