<svg width="36" height="24" viewBox="0 0 36 24" fill="none" xmlns="http://www.w3.org/2000/svg">
<mask id="mask0_219_631" style="mask-type:luminance" maskUnits="userSpaceOnUse" x="9" y="1" width="18" height="22">
<path d="M26.7833 1H9V23H26.7833V1Z" fill="white"/>
</mask>
<g mask="url(#mask0_219_631)">
<path d="M8.99988 5.78906L11.6641 10.5511V13.4559L9.00299 18.2086L8.99988 5.78906Z" fill="#5B57A2"/>
<path d="M19.2294 8.81807L21.7258 7.28797L26.835 7.2832L19.2294 11.9425V8.81807Z" fill="#D90751"/>
<path d="M19.2153 5.76062L19.2294 12.0654L16.559 10.4246V1L19.2153 5.76062Z" fill="#FAB718"/>
<path d="M26.835 7.28302L21.7257 7.28778L19.2153 5.76062L16.559 1L26.835 7.28302Z" fill="#ED6F26"/>
<path d="M19.2294 18.235V15.1761L16.559 13.5664L16.5604 23.0004L19.2294 18.235Z" fill="#63B22F"/>
<path d="M21.7195 16.7188L11.6639 10.5511L8.99988 5.78906L26.8241 16.7126L21.7195 16.7188Z" fill="#1487C9"/>
<path d="M16.5605 23.0007L19.2291 18.2353L21.7194 16.7192L26.8239 16.7129L16.5605 23.0007Z" fill="#017F36"/>
<path d="M9.00305 18.209L16.5808 13.567L14.0332 12.0039L11.6641 13.4563L9.00305 18.209Z" fill="#984995"/>
</g>
</svg>
